<svg width="66" height="43" viewBox="0 0 66 43" fill="none" xmlns="http://www.w3.org/2000/svg">
<path d="M0.730984 1.066C0.670984 0.957999 0.640984 0.867999 0.640984 0.795999C0.640984 0.687999 0.676984 0.597999 0.748984 0.526C0.832984 0.441999 0.928984 0.399999 1.03698 0.399999H1.81098C2.02698 0.399999 2.18298 0.441999 2.27898 0.526C2.38698 0.597999 2.48298 0.705999 2.56698 0.85L5.80698 7.096L9.06498 0.85C9.14898 0.705999 9.23898 0.597999 9.33498 0.526C9.44298 0.441999 9.60498 0.399999 9.82099 0.399999H10.595C10.703 0.399999 10.793 0.441999 10.865 0.526C10.949 0.597999 10.991 0.687999 10.991 0.795999C10.991 0.867999 10.961 0.957999 10.901 1.066L6.58098 9.346C6.13698 10.162 5.75898 10.804 5.44698 11.272C5.14698 11.728 4.76898 12.13 4.31298 12.478C3.85698 12.826 3.32898 13 2.72898 13H1.79298C1.66098 13 1.54698 12.952 1.45098 12.856C1.35498 12.76 1.30698 12.646 1.30698 12.514V11.866C1.30698 11.734 1.35498 11.62 1.45098 11.524C1.54698 11.428 1.66098 11.38 1.79298 11.38H2.56698C2.86698 11.38 3.14298 11.272 3.39498 11.056C3.64698 10.828 3.86298 10.576 4.04298 10.3C4.22298 10.012 4.48698 9.556 4.83498 8.932L0.730984 1.066ZM19.8747 4C19.9227 3.904 20.0007 3.82 20.1087 3.748C20.2167 3.676 20.3607 3.64 20.5407 3.64H21.1347C21.2667 3.64 21.3807 3.688 21.4767 3.784C21.5727 3.88 21.6207 3.994 21.6207 4.126V12.514C21.6207 12.646 21.5727 12.76 21.4767 12.856C21.3807 12.952 21.2667 13 21.1347 13H20.4687C20.3367 13 20.2227 12.952 20.1267 12.856C20.0307 12.76 19.9827 12.646 19.9827 12.514V7.096L17.8587 11.02C17.7147 11.32 17.5047 11.47 17.2287 11.47H16.7967C16.5327 11.47 16.3227 11.32 16.1667 11.02L14.0427 7.096V12.514C14.0427 12.646 13.9947 12.76 13.8987 12.856C13.8027 12.952 13.6887 13 13.5567 13H12.8907C12.7587 13 12.6447 12.952 12.5487 12.856C12.4527 12.76 12.4047 12.646 12.4047 12.514V4.126C12.4047 3.994 12.4527 3.88 12.5487 3.784C12.6447 3.688 12.7587 3.64 12.8907 3.64H13.4847C13.6647 3.64 13.8087 3.676 13.9167 3.748C14.0247 3.82 14.1027 3.904 14.1507 4L17.0127 9.4L19.8747 4ZM28.0127 3.46C29.2967 3.46 30.3107 3.868 31.0547 4.684C31.7987 5.5 32.1707 6.61 32.1707 8.014V8.5C32.1707 8.632 32.1227 8.746 32.0267 8.842C31.9307 8.938 31.8167 8.986 31.6847 8.986H25.4927V9.094C25.5167 9.886 25.7567 10.51 26.2127 10.966C26.6807 11.41 27.2807 11.632 28.0127 11.632C28.6127 11.632 29.0747 11.554 29.3987 11.398C29.7347 11.242 30.0347 11.02 30.2987 10.732C30.3947 10.636 30.4787 10.57 30.5507 10.534C30.6347 10.498 30.7427 10.48 30.8747 10.48H31.4147C31.5587 10.48 31.6787 10.528 31.7747 10.624C31.8707 10.72 31.9127 10.834 31.9007 10.966C31.8527 11.29 31.6727 11.626 31.3607 11.974C31.0607 12.31 30.6227 12.598 30.0467 12.838C29.4827 13.066 28.8047 13.18 28.0127 13.18C27.2447 13.18 26.5607 13.006 25.9607 12.658C25.3607 12.298 24.8807 11.806 24.5207 11.182C24.1727 10.558 23.9627 9.856 23.8907 9.076C23.8667 8.716 23.8547 8.44 23.8547 8.248C23.8547 8.056 23.8667 7.78 23.8907 7.42C23.9627 6.676 24.1727 6.004 24.5207 5.404C24.8807 4.804 25.3547 4.33 25.9427 3.982C26.5427 3.634 27.2327 3.46 28.0127 3.46ZM30.5507 7.474V7.42C30.5507 6.688 30.3167 6.106 29.8487 5.674C29.3927 5.23 28.7807 5.008 28.0127 5.008C27.3167 5.008 26.7227 5.23 26.2307 5.674C25.7507 6.118 25.5047 6.7 25.4927 7.42V7.474H30.5507ZM35.8044 15.934C35.8044 16.066 35.7564 16.18 35.6604 16.276C35.5644 16.372 35.4504 16.42 35.3184 16.42H34.6524C34.5204 16.42 34.4064 16.372 34.3104 16.276C34.2144 16.18 34.1664 16.066 34.1664 15.934V4.126C34.1664 3.994 34.2144 3.88 34.3104 3.784C34.4064 3.688 34.5204 3.64 34.6524 3.64H35.3184C35.4504 3.64 35.5644 3.688 35.6604 3.784C35.7564 3.88 35.8044 3.994 35.8044 4.126V4.684C36.4164 3.868 37.3464 3.46 38.5944 3.46C39.3384 3.46 40.0104 3.634 40.6104 3.982C41.2224 4.33 41.7084 4.828 42.0684 5.476C42.4404 6.124 42.6444 6.88 42.6804 7.744C42.6924 7.864 42.6984 8.056 42.6984 8.32C42.6984 8.596 42.6924 8.794 42.6804 8.914C42.6444 9.778 42.4404 10.534 42.0684 11.182C41.7084 11.818 41.2284 12.31 40.6284 12.658C40.0284 13.006 39.3504 13.18 38.5944 13.18C37.9224 13.18 37.3524 13.066 36.8844 12.838C36.4284 12.598 36.0684 12.304 35.8044 11.956V15.934ZM35.8044 8.968C35.8404 9.808 36.0924 10.462 36.5604 10.93C37.0284 11.398 37.6464 11.632 38.4144 11.632C39.1944 11.632 39.8124 11.38 40.2684 10.876C40.7364 10.372 40.9944 9.688 41.0424 8.824C41.0544 8.704 41.0604 8.536 41.0604 8.32C41.0604 8.104 41.0544 7.936 41.0424 7.816C40.9944 6.952 40.7364 6.268 40.2684 5.764C39.8124 5.26 39.1944 5.008 38.4144 5.008C37.6704 5.008 37.0584 5.242 36.5784 5.71C36.0984 6.166 35.8404 6.778 35.8044 7.546L35.7864 8.248L35.8044 8.968ZM52.5202 3.64C52.6522 3.64 52.7662 3.688 52.8622 3.784C52.9582 3.88 53.0062 3.994 53.0062 4.126V12.514C53.0062 12.646 52.9582 12.76 52.8622 12.856C52.7662 12.952 52.6522 13 52.5202 13H51.8542C51.7222 13 51.6082 12.952 51.5122 12.856C51.4162 12.76 51.3682 12.646 51.3682 12.514V5.188H47.6062V9.886C47.6062 10.942 47.3722 11.758 46.9042 12.334C46.4482 12.898 45.6802 13.18 44.6002 13.18H44.3842C44.2522 13.18 44.1382 13.132 44.0422 13.036C43.9462 12.94 43.8982 12.826 43.8982 12.694V12.118C43.8982 11.986 43.9462 11.872 44.0422 11.776C44.1382 11.68 44.2522 11.632 44.3842 11.632H44.6002C45.1282 11.632 45.4882 11.488 45.6802 11.2C45.8722 10.9 45.9682 10.456 45.9682 9.868V4.126C45.9682 3.994 46.0162 3.88 46.1122 3.784C46.2082 3.688 46.3222 3.64 46.4542 3.64H52.5202ZM62.8996 13C62.7676 13 62.6536 12.952 62.5576 12.856C62.4616 12.76 62.4136 12.646 62.4136 12.514V6.484L57.1756 12.802C57.0796 12.934 56.9476 13 56.7796 13H56.1676C56.0356 13 55.9216 12.952 55.8256 12.856C55.7416 12.76 55.6996 12.646 55.6996 12.514V4.126C55.6996 3.994 55.7476 3.88 55.8436 3.784C55.9396 3.688 56.0536 3.64 56.1856 3.64H56.8516C56.9836 3.64 57.0976 3.688 57.1936 3.784C57.2896 3.88 57.3376 3.994 57.3376 4.126V10.21L62.5756 3.838C62.6356 3.766 62.6896 3.718 62.7376 3.694C62.7976 3.658 62.8756 3.64 62.9716 3.64H63.5656C63.6976 3.64 63.8116 3.688 63.9076 3.784C64.0036 3.88 64.0516 3.994 64.0516 4.126V12.514C64.0516 12.646 64.0036 12.76 63.9076 12.856C63.8116 12.952 63.6976 13 63.5656 13H62.8996ZM7.925 43C7.75833 43 7.61667 42.9417 7.5 42.825C7.38333 42.7083 7.325 42.5667 7.325 42.4V29.45L3.525 32.375C3.425 32.4583 3.30833 32.5 3.175 32.5C2.975 32.5 2.80833 32.4083 2.675 32.225L1.625 30.875C1.54167 30.7417 1.5 30.6167 1.5 30.5C1.5 30.3 1.59167 30.1333 1.775 30L7.375 25.675C7.525 25.5583 7.73333 25.5 8 25.5H10.2C10.3833 25.5 10.525 25.5583 10.625 25.675C10.7417 25.775 10.8 25.9167 10.8 26.1V42.4C10.8 42.5667 10.7417 42.7083 10.625 42.825C10.525 42.9417 10.3833 43 10.2 43H7.925ZM14.2973 43C14.1306 43 13.9889 42.9417 13.8723 42.825C13.7556 42.7083 13.6973 42.5667 13.6973 42.4V41.125C13.6973 40.675 13.9056 40.2833 14.3223 39.95L18.2723 36.025C19.9889 34.675 21.1806 33.625 21.8473 32.875C22.5306 32.1083 22.8723 31.3583 22.8723 30.625C22.8723 29.8417 22.6556 29.225 22.2223 28.775C21.8056 28.325 21.1723 28.1 20.3223 28.1C19.4889 28.1 18.8306 28.35 18.3473 28.85C17.8639 29.3333 17.5639 29.9667 17.4473 30.75C17.3973 30.95 17.3056 31.1 17.1723 31.2C17.0389 31.2833 16.8889 31.325 16.7223 31.325H14.4973C14.3473 31.325 14.2223 31.275 14.1223 31.175C14.0223 31.075 13.9723 30.9583 13.9723 30.825C14.0056 29.8417 14.2723 28.925 14.7723 28.075C15.2723 27.2083 15.9973 26.5167 16.9473 26C17.8973 25.4667 19.0139 25.2 20.2973 25.2C21.6306 25.2 22.7556 25.4333 23.6723 25.9C24.6056 26.35 25.3056 26.975 25.7723 27.775C26.2389 28.575 26.4723 29.4833 26.4723 30.5C26.4723 31.6167 26.1556 32.625 25.5223 33.525C24.9056 34.425 23.9556 35.3917 22.6723 36.425L19.1223 40.025H26.2473C26.4306 40.025 26.5723 40.0833 26.6723 40.2C26.7889 40.3 26.8473 40.4417 26.8473 40.625V42.4C26.8473 42.5667 26.7889 42.7083 26.6723 42.825C26.5723 42.9417 26.4306 43 26.2473 43H14.2973Z" fill="black"/>
</svg>
