<svg width="226" height="40" viewBox="0 0 226 40" fill="none" xmlns="http://www.w3.org/2000/svg">
<path d="M11.74 14.32C11.78 14.3733 11.8 14.4467 11.8 14.54C11.8 14.66 11.7533 14.7667 11.66 14.86C11.58 14.9533 11.4733 15 11.34 15H9.28C9.12 15 9 14.9733 8.92 14.92C8.84 14.8533 8.76 14.7667 8.68 14.66L5.24 9.16H3.34V14.52C3.34 14.6533 3.29333 14.7667 3.2 14.86C3.12 14.9533 3.00667 15 2.86 15H1.04C0.906667 15 0.793333 14.9533 0.7 14.86C0.606667 14.7667 0.56 14.6533 0.56 14.52V1.5C0.56 1.35333 0.6 1.23333 0.68 1.14C0.773333 1.04667 0.893333 0.999999 1.04 0.999999H2.86C3.00667 0.999999 3.12 1.04667 3.2 1.14C3.29333 1.23333 3.34 1.35333 3.34 1.5V6.66L5.1 6.68L8.34 1.36C8.47333 1.12 8.71333 0.999999 9.06 0.999999H11.04C11.1733 0.999999 11.2733 1.04 11.34 1.12C11.42 1.2 11.46 1.3 11.46 1.42C11.46 1.47333 11.4333 1.55333 11.38 1.66L7.6 7.76L11.74 14.32ZM17.7325 15.2C16.1725 15.2 14.9658 14.8 14.1125 14C13.2592 13.1867 12.7992 12.08 12.7325 10.68L12.7125 9.8L12.7325 8.92C12.7992 7.53333 13.2658 6.43333 14.1325 5.62C14.9992 4.80667 16.1992 4.4 17.7325 4.4C19.2658 4.4 20.4658 4.80667 21.3325 5.62C22.1992 6.43333 22.6658 7.53333 22.7325 8.92C22.7458 9.08 22.7525 9.37333 22.7525 9.8C22.7525 10.2267 22.7458 10.52 22.7325 10.68C22.6658 12.08 22.2058 13.1867 21.3525 14C20.4992 14.8 19.2925 15.2 17.7325 15.2ZM17.7325 13.22C18.4392 13.22 18.9858 13 19.3725 12.56C19.7592 12.1067 19.9725 11.4467 20.0125 10.58C20.0258 10.4467 20.0325 10.1867 20.0325 9.8C20.0325 9.41333 20.0258 9.15333 20.0125 9.02C19.9725 8.15333 19.7592 7.5 19.3725 7.06C18.9858 6.60667 18.4392 6.38 17.7325 6.38C17.0258 6.38 16.4792 6.60667 16.0925 7.06C15.7058 7.5 15.4925 8.15333 15.4525 9.02L15.4325 9.8L15.4525 10.58C15.4925 11.4467 15.7058 12.1067 16.0925 12.56C16.4792 13 17.0258 13.22 17.7325 13.22ZM25.4684 18.8C25.3351 18.8 25.2218 18.7533 25.1284 18.66C25.0351 18.58 24.9884 18.4667 24.9884 18.32V5.08C24.9884 4.93333 25.0351 4.82 25.1284 4.74C25.2218 4.64667 25.3351 4.6 25.4684 4.6H27.0484C27.1951 4.6 27.3084 4.64667 27.3884 4.74C27.4818 4.82 27.5284 4.93333 27.5284 5.08V5.88C28.2751 4.89333 29.3418 4.4 30.7284 4.4C32.0751 4.4 33.1084 4.82667 33.8284 5.68C34.5484 6.52 34.9351 7.66 34.9884 9.1C35.0018 9.26 35.0084 9.49333 35.0084 9.8C35.0084 10.12 35.0018 10.36 34.9884 10.52C34.9351 11.92 34.5484 13.0533 33.8284 13.92C33.1084 14.7733 32.0751 15.2 30.7284 15.2C29.3818 15.2 28.3551 14.7267 27.6484 13.78V18.32C27.6484 18.4667 27.6018 18.58 27.5084 18.66C27.4284 18.7533 27.3151 18.8 27.1684 18.8H25.4684ZM29.9884 13.06C31.4284 13.06 32.1951 12.1733 32.2884 10.4C32.3018 10.2667 32.3084 10.0667 32.3084 9.8C32.3084 9.53333 32.3018 9.33333 32.2884 9.2C32.1951 7.42667 31.4284 6.54 29.9884 6.54C29.2151 6.54 28.6418 6.78667 28.2684 7.28C27.8951 7.77333 27.6884 8.38 27.6484 9.1L27.6284 9.86L27.6484 10.64C27.6751 11.3067 27.8818 11.88 28.2684 12.36C28.6684 12.8267 29.2418 13.06 29.9884 13.06ZM41.8536 15.2C40.2936 15.2 39.0869 14.8 38.2336 14C37.3803 13.1867 36.9203 12.08 36.8536 10.68L36.8336 9.8L36.8536 8.92C36.9203 7.53333 37.3869 6.43333 38.2536 5.62C39.1203 4.80667 40.3203 4.4 41.8536 4.4C43.3869 4.4 44.5869 4.80667 45.4536 5.62C46.3203 6.43333 46.7869 7.53333 46.8536 8.92C46.8669 9.08 46.8736 9.37333 46.8736 9.8C46.8736 10.2267 46.8669 10.52 46.8536 10.68C46.7869 12.08 46.3269 13.1867 45.4736 14C44.6203 14.8 43.4136 15.2 41.8536 15.2ZM41.8536 13.22C42.5603 13.22 43.1069 13 43.4936 12.56C43.8803 12.1067 44.0936 11.4467 44.1336 10.58C44.1469 10.4467 44.1536 10.1867 44.1536 9.8C44.1536 9.41333 44.1469 9.15333 44.1336 9.02C44.0936 8.15333 43.8803 7.5 43.4936 7.06C43.1069 6.60667 42.5603 6.38 41.8536 6.38C41.1469 6.38 40.6003 6.60667 40.2136 7.06C39.8269 7.5 39.6136 8.15333 39.5736 9.02L39.5536 9.8L39.5736 10.58C39.6136 11.4467 39.8269 12.1067 40.2136 12.56C40.6003 13 41.1469 13.22 41.8536 13.22ZM49.5695 15C49.4362 15 49.3229 14.9533 49.2295 14.86C49.1362 14.7667 49.0895 14.6533 49.0895 14.52V5.08C49.0895 4.94667 49.1362 4.83333 49.2295 4.74C49.3229 4.64667 49.4362 4.6 49.5695 4.6H51.2295C51.3762 4.6 51.4895 4.64667 51.5695 4.74C51.6629 4.82 51.7095 4.93333 51.7095 5.08V8.66H56.2295V5.08C56.2295 4.93333 56.2762 4.82 56.3695 4.74C56.4629 4.64667 56.5762 4.6 56.7095 4.6H58.3695C58.5162 4.6 58.6295 4.64667 58.7095 4.74C58.8029 4.82 58.8495 4.93333 58.8495 5.08V14.52C58.8495 14.6533 58.8029 14.7667 58.7095 14.86C58.6295 14.9533 58.5162 15 58.3695 15H56.7095C56.5762 15 56.4629 14.9533 56.3695 14.86C56.2762 14.7667 56.2295 14.6533 56.2295 14.52V10.76H51.7095V14.52C51.7095 14.6533 51.6629 14.7667 51.5695 14.86C51.4895 14.9533 51.3762 15 51.2295 15H49.5695ZM64.5705 15.2C63.8905 15.2 63.2638 15.0667 62.6905 14.8C62.1305 14.52 61.6838 14.1467 61.3505 13.68C61.0305 13.2133 60.8705 12.7 60.8705 12.14C60.8705 11.2333 61.2371 10.5 61.9705 9.94C62.7038 9.38 63.7105 9 64.9905 8.8L67.7305 8.4V7.98C67.7305 7.39333 67.5838 6.95333 67.2905 6.66C66.9971 6.36667 66.5238 6.22 65.8705 6.22C65.4305 6.22 65.0705 6.30667 64.7905 6.48C64.5238 6.64 64.3105 6.8 64.1505 6.96C63.9905 7.13333 63.8838 7.24667 63.8305 7.3C63.7771 7.46 63.6771 7.54 63.5305 7.54H61.9905C61.8705 7.54 61.7638 7.5 61.6705 7.42C61.5905 7.34 61.5505 7.23333 61.5505 7.1C61.5638 6.76667 61.7238 6.38667 62.0305 5.96C62.3505 5.53333 62.8371 5.16667 63.4905 4.86C64.1438 4.55333 64.9438 4.4 65.8905 4.4C67.4638 4.4 68.6105 4.75333 69.3305 5.46C70.0505 6.16667 70.4105 7.09333 70.4105 8.24V14.52C70.4105 14.6533 70.3638 14.7667 70.2705 14.86C70.1905 14.9533 70.0771 15 69.9305 15H68.3105C68.1771 15 68.0638 14.9533 67.9705 14.86C67.8771 14.7667 67.8305 14.6533 67.8305 14.52V13.74C67.5371 14.1667 67.1171 14.52 66.5705 14.8C66.0371 15.0667 65.3705 15.2 64.5705 15.2ZM65.2505 13.3C65.9838 13.3 66.5838 13.06 67.0505 12.58C67.5171 12.1 67.7505 11.4 67.7505 10.48V10.06L65.7505 10.38C64.9771 10.5 64.3905 10.6933 63.9905 10.96C63.6038 11.2267 63.4105 11.5533 63.4105 11.94C63.4105 12.3667 63.5905 12.7 63.9505 12.94C64.3105 13.18 64.7438 13.3 65.2505 13.3ZM73.4563 15C73.3229 15 73.2096 14.9533 73.1163 14.86C73.0229 14.7667 72.9762 14.6533 72.9762 14.52V5.08C72.9762 4.94667 73.0229 4.83333 73.1163 4.74C73.2096 4.64667 73.3229 4.6 73.4563 4.6H77.8963C79.2696 4.6 80.3029 4.85333 80.9963 5.36C81.7029 5.86667 82.0563 6.57333 82.0563 7.48C82.0563 8.01333 81.9563 8.44 81.7562 8.76C81.5563 9.06667 81.2563 9.34 80.8563 9.58C81.3229 9.79333 81.6829 10.1133 81.9362 10.54C82.2029 10.9667 82.3363 11.4467 82.3363 11.98C82.3363 12.9533 81.9763 13.7 81.2563 14.22C80.5363 14.74 79.4896 15 78.1163 15H73.4563ZM77.8563 8.84C78.3896 8.84 78.8096 8.73333 79.1163 8.52C79.4229 8.29333 79.5763 7.96667 79.5763 7.54C79.5763 7.12667 79.4296 6.83333 79.1363 6.66C78.8429 6.48667 78.4163 6.4 77.8563 6.4H75.5363V8.84H77.8563ZM77.9363 13.2C78.4829 13.2 78.9096 13.1 79.2163 12.9C79.5363 12.6867 79.6963 12.3733 79.6963 11.96C79.6963 11.52 79.5496 11.2 79.2563 11C78.9763 10.8 78.5363 10.7 77.9363 10.7H75.5363V13.2H77.9363ZM94.1164 4.6C94.2364 4.6 94.3431 4.64667 94.4364 4.74C94.5297 4.82 94.5764 4.92 94.5764 5.04V14.52C94.5764 14.6533 94.5297 14.7667 94.4364 14.86C94.3431 14.9533 94.2297 15 94.0964 15H92.4364C92.3031 15 92.1897 14.9533 92.0964 14.86C92.0031 14.7667 91.9564 14.6533 91.9564 14.52V8.1L87.1564 14.68C87.0364 14.8933 86.8564 15 86.6164 15H85.0964C84.9764 15 84.8697 14.96 84.7764 14.88C84.6831 14.7867 84.6364 14.6733 84.6364 14.54V5.08C84.6364 4.94667 84.6831 4.83333 84.7764 4.74C84.8697 4.64667 84.9831 4.6 85.1164 4.6H86.7764C86.9231 4.6 87.0364 4.64667 87.1164 4.74C87.2097 4.82 87.2564 4.93333 87.2564 5.08V11.52L92.0564 4.92C92.2031 4.70667 92.3831 4.6 92.5964 4.6H94.1164ZM97.5973 18.8C97.464 18.8 97.3507 18.7533 97.2573 18.66C97.164 18.58 97.1173 18.4667 97.1173 18.32V5.08C97.1173 4.93333 97.164 4.82 97.2573 4.74C97.3507 4.64667 97.464 4.6 97.5973 4.6H99.1773C99.324 4.6 99.4373 4.64667 99.5173 4.74C99.6107 4.82 99.6573 4.93333 99.6573 5.08V5.88C100.404 4.89333 101.471 4.4 102.857 4.4C104.204 4.4 105.237 4.82667 105.957 5.68C106.677 6.52 107.064 7.66 107.117 9.1C107.131 9.26 107.137 9.49333 107.137 9.8C107.137 10.12 107.131 10.36 107.117 10.52C107.064 11.92 106.677 13.0533 105.957 13.92C105.237 14.7733 104.204 15.2 102.857 15.2C101.511 15.2 100.484 14.7267 99.7773 13.78V18.32C99.7773 18.4667 99.7307 18.58 99.6373 18.66C99.5573 18.7533 99.444 18.8 99.2973 18.8H97.5973ZM102.117 13.06C103.557 13.06 104.324 12.1733 104.417 10.4C104.431 10.2667 104.437 10.0667 104.437 9.8C104.437 9.53333 104.431 9.33333 104.417 9.2C104.324 7.42667 103.557 6.54 102.117 6.54C101.344 6.54 100.771 6.78667 100.397 7.28C100.024 7.77333 99.8173 8.38 99.7773 9.1L99.7573 9.86L99.7773 10.64C99.804 11.3067 100.011 11.88 100.397 12.36C100.797 12.8267 101.371 13.06 102.117 13.06ZM118.173 4.6C118.279 4.6 118.373 4.64 118.453 4.72C118.546 4.8 118.593 4.89333 118.593 5C118.593 5.09333 118.566 5.2 118.513 5.32L114.713 14.4C114.299 15.3867 113.926 16.1733 113.593 16.76C113.259 17.3467 112.846 17.8333 112.353 18.22C111.859 18.6067 111.266 18.8 110.573 18.8H109.693C109.559 18.8 109.446 18.7533 109.353 18.66C109.259 18.58 109.213 18.4667 109.213 18.32V17.18C109.213 17.0467 109.259 16.9333 109.353 16.84C109.446 16.7467 109.559 16.7 109.693 16.7H110.313C110.713 16.7 111.013 16.5867 111.213 16.36C111.413 16.1333 111.653 15.68 111.933 15L112.153 14.46L108.213 5.32C108.159 5.2 108.133 5.10667 108.133 5.04C108.146 4.92 108.193 4.82 108.273 4.74C108.353 4.64667 108.453 4.6 108.573 4.6H110.173C110.413 4.6 110.586 4.72667 110.693 4.98L113.353 11.56L116.093 4.98C116.186 4.72667 116.373 4.6 116.653 4.6H118.173ZM124.488 15.2C123.021 15.2 121.848 14.7933 120.968 13.98C120.101 13.1667 119.641 12.04 119.588 10.6L119.568 9.8L119.588 9C119.641 7.56 120.101 6.43333 120.968 5.62C121.848 4.80667 123.021 4.4 124.488 4.4C125.528 4.4 126.408 4.58667 127.128 4.96C127.861 5.33333 128.401 5.79333 128.748 6.34C129.108 6.87333 129.301 7.38 129.328 7.86C129.341 7.99333 129.295 8.10667 129.188 8.2C129.095 8.29333 128.981 8.34 128.848 8.34H127.088C126.955 8.34 126.848 8.31333 126.768 8.26C126.701 8.19333 126.635 8.08667 126.568 7.94C126.368 7.42 126.101 7.04667 125.768 6.82C125.448 6.59333 125.035 6.48 124.528 6.48C123.848 6.48 123.315 6.7 122.928 7.14C122.541 7.56667 122.335 8.22 122.308 9.1L122.288 9.84L122.308 10.5C122.361 12.2467 123.101 13.12 124.528 13.12C125.048 13.12 125.468 13.0067 125.788 12.78C126.108 12.5533 126.368 12.18 126.568 11.66C126.635 11.5133 126.701 11.4133 126.768 11.36C126.848 11.2933 126.955 11.26 127.088 11.26H128.848C128.981 11.26 129.095 11.3067 129.188 11.4C129.295 11.4933 129.341 11.6067 129.328 11.74C129.301 12.2067 129.115 12.7067 128.768 13.24C128.421 13.7733 127.888 14.2333 127.168 14.62C126.448 15.0067 125.555 15.2 124.488 15.2ZM141.624 15.2C139.784 15.2 138.357 14.7267 137.344 13.78C136.344 12.8333 135.811 11.5 135.744 9.78C135.731 9.42 135.724 8.83333 135.724 8.02C135.724 7.19333 135.731 6.59333 135.744 6.22C135.811 4.51333 136.351 3.18667 137.364 2.24C138.391 1.28 139.811 0.799999 141.624 0.799999C142.811 0.799999 143.844 1.00667 144.724 1.42C145.604 1.82 146.284 2.37333 146.764 3.08C147.244 3.77333 147.497 4.56 147.524 5.44V5.48C147.524 5.58667 147.477 5.68 147.384 5.76C147.304 5.82667 147.211 5.86 147.104 5.86H145.204C145.044 5.86 144.924 5.82667 144.844 5.76C144.764 5.69333 144.697 5.56667 144.644 5.38C144.431 4.54 144.077 3.95333 143.584 3.62C143.091 3.27333 142.431 3.1 141.604 3.1C139.684 3.1 138.684 4.17333 138.604 6.32C138.591 6.68 138.584 7.23333 138.584 7.98C138.584 8.72667 138.591 9.29333 138.604 9.68C138.684 11.8267 139.684 12.9 141.604 12.9C142.431 12.9 143.091 12.7267 143.584 12.38C144.091 12.0333 144.444 11.4467 144.644 10.62C144.684 10.4333 144.744 10.3067 144.824 10.24C144.917 10.1733 145.044 10.14 145.204 10.14H147.104C147.224 10.14 147.324 10.18 147.404 10.26C147.497 10.34 147.537 10.44 147.524 10.56C147.497 11.44 147.244 12.2333 146.764 12.94C146.284 13.6333 145.604 14.1867 144.724 14.6C143.844 15 142.811 15.2 141.624 15.2ZM155.276 15.2C153.463 15.2 152.049 14.74 151.036 13.82C150.023 12.9 149.489 11.5333 149.436 9.72C149.423 9.33333 149.416 8.76667 149.416 8.02C149.416 7.26 149.423 6.68667 149.436 6.3C149.489 4.52667 150.036 3.16667 151.076 2.22C152.116 1.27333 153.516 0.799999 155.276 0.799999C157.036 0.799999 158.436 1.27333 159.476 2.22C160.529 3.16667 161.083 4.52667 161.136 6.3C161.163 7.07333 161.176 7.64667 161.176 8.02C161.176 8.38 161.163 8.94667 161.136 9.72C161.069 11.5333 160.529 12.9 159.516 13.82C158.503 14.74 157.089 15.2 155.276 15.2ZM155.276 12.9C156.169 12.9 156.883 12.6333 157.416 12.1C157.949 11.5533 158.236 10.7267 158.276 9.62C158.303 8.82 158.316 8.28 158.316 8C158.316 7.69333 158.303 7.15333 158.276 6.38C158.236 5.27333 157.949 4.45333 157.416 3.92C156.883 3.37333 156.169 3.1 155.276 3.1C154.396 3.1 153.689 3.37333 153.156 3.92C152.623 4.45333 152.336 5.27333 152.296 6.38C152.283 6.76667 152.276 7.30667 152.276 8C152.276 8.68 152.283 9.22 152.296 9.62C152.336 10.7267 152.616 11.5533 153.136 12.1C153.669 12.6333 154.383 12.9 155.276 12.9ZM167.453 15C167.066 15 166.813 14.8133 166.693 14.44L162.413 1.6L162.373 1.42C162.373 1.3 162.413 1.2 162.493 1.12C162.573 1.04 162.673 0.999999 162.793 0.999999H164.553C164.726 0.999999 164.859 1.04667 164.953 1.14C165.059 1.22 165.133 1.32 165.173 1.44L168.553 11.74L171.933 1.44C171.959 1.33333 172.026 1.23333 172.133 1.14C172.239 1.04667 172.379 0.999999 172.553 0.999999H174.312C174.419 0.999999 174.513 1.04 174.593 1.12C174.686 1.2 174.733 1.3 174.733 1.42L174.693 1.6L170.413 14.44C170.293 14.8133 170.039 15 169.653 15H167.453ZM177.329 15C177.196 15 177.082 14.9533 176.989 14.86C176.896 14.7667 176.849 14.6533 176.849 14.52V1.48C176.849 1.33333 176.896 1.22 176.989 1.14C177.082 1.04667 177.196 0.999999 177.329 0.999999H179.209C179.356 0.999999 179.469 1.04667 179.549 1.14C179.642 1.22 179.689 1.33333 179.689 1.48V14.52C179.689 14.6533 179.642 14.7667 179.549 14.86C179.469 14.9533 179.356 15 179.209 15H177.329ZM183.306 15C183.172 15 183.059 14.9533 182.966 14.86C182.872 14.7667 182.826 14.6533 182.826 14.52V1.5C182.826 1.35333 182.866 1.23333 182.946 1.14C183.039 1.04667 183.159 0.999999 183.306 0.999999H188.186C192.106 0.999999 194.106 2.81333 194.186 6.44C194.212 7.21333 194.226 7.73333 194.226 8C194.226 8.25333 194.212 8.76667 194.186 9.54C194.132 11.4067 193.632 12.7867 192.686 13.68C191.739 14.56 190.272 15 188.286 15H183.306ZM188.186 12.7C189.306 12.7 190.112 12.4533 190.606 11.96C191.099 11.4533 191.359 10.6267 191.386 9.48C191.412 8.68 191.426 8.18 191.426 7.98C191.426 7.76667 191.412 7.27333 191.386 6.5C191.359 5.40667 191.079 4.6 190.546 4.08C190.026 3.56 189.206 3.3 188.086 3.3H185.606V12.7H188.186ZM197.068 10.14C196.935 10.14 196.821 10.0933 196.728 10C196.635 9.90667 196.588 9.79333 196.588 9.66V8.34C196.588 8.19333 196.635 8.08 196.728 8C196.821 7.90667 196.935 7.86 197.068 7.86H203.208C203.355 7.86 203.468 7.90667 203.548 8C203.641 8.08 203.688 8.19333 203.688 8.34V9.66C203.688 9.79333 203.641 9.90667 203.548 10C203.468 10.0933 203.355 10.14 203.208 10.14H197.068ZM209.853 15C209.719 15 209.606 14.9533 209.513 14.86C209.419 14.7667 209.373 14.6533 209.373 14.52V4.16L206.333 6.5C206.253 6.56667 206.159 6.6 206.053 6.6C205.893 6.6 205.759 6.52667 205.653 6.38L204.813 5.3C204.746 5.19333 204.713 5.09333 204.713 5C204.713 4.84 204.786 4.70667 204.933 4.6L209.413 1.14C209.533 1.04667 209.699 0.999999 209.913 0.999999H211.673C211.819 0.999999 211.933 1.04667 212.013 1.14C212.106 1.22 212.153 1.33333 212.153 1.48V14.52C212.153 14.6533 212.106 14.7667 212.013 14.86C211.933 14.9533 211.819 15 211.673 15H209.853ZM217.25 15C217.13 15 217.03 14.96 216.95 14.88C216.87 14.7867 216.83 14.68 216.83 14.56C216.83 14.4667 216.857 14.38 216.91 14.3L219.85 10.24C219.557 10.3067 219.284 10.3333 219.03 10.32C218.137 10.2933 217.324 10.0733 216.59 9.66C215.857 9.24667 215.277 8.68667 214.85 7.98C214.437 7.27333 214.23 6.5 214.23 5.66C214.23 4.82 214.437 4.03333 214.85 3.3C215.264 2.55333 215.877 1.95333 216.69 1.5C217.504 1.03333 218.484 0.799999 219.63 0.799999C220.777 0.799999 221.764 1.02 222.59 1.46C223.417 1.88667 224.037 2.46667 224.45 3.2C224.877 3.92 225.09 4.71333 225.09 5.58C225.09 6.11333 225.004 6.62 224.83 7.1C224.657 7.58 224.457 8 224.23 8.36C224.017 8.70667 223.71 9.16 223.31 9.72L219.79 14.6C219.71 14.72 219.617 14.82 219.51 14.9C219.417 14.9667 219.284 15 219.11 15H217.25ZM219.65 8.2C220.384 8.2 220.997 7.97333 221.49 7.52C221.997 7.05333 222.25 6.43333 222.25 5.66C222.25 4.88667 221.997 4.26667 221.49 3.8C220.997 3.33333 220.384 3.1 219.65 3.1C218.917 3.1 218.297 3.33333 217.79 3.8C217.297 4.26667 217.05 4.88667 217.05 5.66C217.05 6.43333 217.297 7.05333 217.79 7.52C218.284 7.97333 218.904 8.2 219.65 8.2ZM0.8 39C0.666667 39 0.553333 38.9533 0.46 38.86C0.366667 38.7667 0.32 38.6533 0.32 38.52V29.08C0.32 28.9467 0.366667 28.8333 0.46 28.74C0.553333 28.6467 0.666667 28.6 0.8 28.6H5.24C6.61333 28.6 7.64667 28.8533 8.34 29.36C9.04667 29.8667 9.4 30.5733 9.4 31.48C9.4 32.0133 9.3 32.44 9.1 32.76C8.9 33.0667 8.6 33.34 8.2 33.58C8.66667 33.7933 9.02667 34.1133 9.28 34.54C9.54667 34.9667 9.68 35.4467 9.68 35.98C9.68 36.9533 9.32 37.7 8.6 38.22C7.88 38.74 6.83333 39 5.46 39H0.8ZM5.2 32.84C5.73333 32.84 6.15333 32.7333 6.46 32.52C6.76667 32.2933 6.92 31.9667 6.92 31.54C6.92 31.1267 6.77333 30.8333 6.48 30.66C6.18667 30.4867 5.76 30.4 5.2 30.4H2.88V32.84H5.2ZM5.28 37.2C5.82667 37.2 6.25333 37.1 6.56 36.9C6.88 36.6867 7.04 36.3733 7.04 35.96C7.04 35.52 6.89333 35.2 6.6 35C6.32 34.8 5.88 34.7 5.28 34.7H2.88V37.2H5.28ZM27.2105 25C27.3171 25 27.4105 25.04 27.4905 25.12C27.5838 25.2 27.6305 25.2933 27.6305 25.4C27.6305 25.4933 27.6038 25.6067 27.5505 25.74L23.5305 34.92C23.0638 35.9867 22.6305 36.8 22.2305 37.36C21.8438 37.92 21.3771 38.3333 20.8305 38.6C20.2838 38.8667 19.5705 39 18.6905 39H17.7505C17.6171 39 17.5038 38.9533 17.4105 38.86C17.3171 38.7667 17.2705 38.6533 17.2705 38.52V37.04C17.2705 36.8933 17.3171 36.7733 17.4105 36.68C17.5038 36.5867 17.6171 36.54 17.7505 36.54H18.4905C18.9438 36.54 19.3305 36.42 19.6505 36.18C19.9705 35.94 20.2771 35.54 20.5705 34.98L15.5105 25.64C15.4705 25.56 15.4505 25.4933 15.4505 25.44C15.4505 25.32 15.4905 25.22 15.5705 25.14C15.6638 25.0467 15.7705 25 15.8905 25H17.8505C18.0771 25 18.2505 25.1267 18.3705 25.38L21.9105 31.98L24.8105 25.38C24.9038 25.1267 25.0838 25 25.3505 25H27.2105ZM32.9333 39.2C31.8666 39.2 30.9999 39.0467 30.3333 38.74C29.6799 38.42 29.1999 38.0333 28.8933 37.58C28.5999 37.1267 28.4399 36.68 28.4133 36.24V36.18C28.4133 36.0867 28.4466 36.0133 28.5133 35.96C28.5933 35.8933 28.6799 35.86 28.7733 35.86H30.4133C30.5466 35.86 30.6466 35.8867 30.7133 35.94C30.7933 35.9933 30.8599 36.08 30.9133 36.2C31.0466 36.5867 31.2866 36.8667 31.6333 37.04C31.9933 37.2 32.4599 37.28 33.0333 37.28C33.6199 37.28 34.0866 37.1667 34.4333 36.94C34.7799 36.7133 34.9533 36.3667 34.9533 35.9C34.9533 34.9933 34.4133 34.54 33.3333 34.54H32.2333C32.0999 34.54 31.9933 34.5 31.9133 34.42C31.8333 34.34 31.7933 34.2333 31.7933 34.1V33.26C31.7933 33.14 31.8333 33.04 31.9133 32.96C31.9933 32.8667 32.0999 32.82 32.2333 32.82H33.2533C33.7333 32.82 34.0933 32.7333 34.3333 32.56C34.5733 32.3733 34.6933 32.0867 34.6933 31.7C34.6933 31.3133 34.5533 30.9933 34.2733 30.74C33.9933 30.4733 33.5399 30.34 32.9133 30.34C32.3133 30.34 31.8799 30.4333 31.6133 30.62C31.3466 30.8067 31.1399 31.1133 30.9933 31.54C30.9266 31.66 30.8533 31.7467 30.7733 31.8C30.7066 31.8533 30.6066 31.88 30.4733 31.88H28.8933C28.7866 31.88 28.6933 31.8467 28.6133 31.78C28.5333 31.7 28.4999 31.6067 28.5133 31.5C28.5399 30.9667 28.7066 30.4667 29.0133 30C29.3333 29.5333 29.8199 29.1533 30.4733 28.86C31.1266 28.5533 31.9466 28.4 32.9333 28.4C34.3999 28.4 35.4799 28.6867 36.1733 29.26C36.8799 29.8333 37.2333 30.5267 37.2333 31.34C37.2333 31.86 37.1333 32.2933 36.9333 32.64C36.7466 32.9867 36.4266 33.2733 35.9733 33.5C37.0399 33.9133 37.5733 34.7867 37.5733 36.12C37.5733 37.08 37.1466 37.8333 36.2933 38.38C35.4533 38.9267 34.3333 39.2 32.9333 39.2ZM49.3364 33.56C49.3497 33.7067 49.3564 33.9333 49.3564 34.24C49.3564 34.5333 49.3497 34.7467 49.3364 34.88C49.2697 36.2133 48.8097 37.2667 47.9564 38.04C47.1164 38.8133 45.9097 39.2 44.3364 39.2C42.6831 39.2 41.4497 38.7733 40.6364 37.92C39.8364 37.0533 39.4031 35.78 39.3364 34.1L39.3164 32.9L39.3364 31.7C39.3764 29.8067 39.6697 28.3867 40.2164 27.44C40.7631 26.48 41.5564 25.7867 42.5964 25.36C43.6364 24.92 45.3164 24.42 47.6364 23.86L47.7364 23.84C47.8431 23.84 47.9431 23.88 48.0364 23.96C48.1297 24.0267 48.1831 24.12 48.1964 24.24L48.4564 25.56L48.4764 25.68C48.4764 25.7867 48.4431 25.88 48.3764 25.96C48.3097 26.0267 48.2231 26.0733 48.1164 26.1L47.4764 26.24C45.8897 26.6 44.7497 26.9067 44.0564 27.16C43.3764 27.4 42.8564 27.7733 42.4964 28.28C42.1364 28.7867 41.9297 29.5467 41.8764 30.56C42.1964 30.16 42.6164 29.84 43.1364 29.6C43.6697 29.36 44.2297 29.24 44.8164 29.24C46.2164 29.24 47.3031 29.6267 48.0764 30.4C48.8497 31.1733 49.2697 32.2267 49.3364 33.56ZM46.6164 34.78C46.6297 34.6867 46.6364 34.5133 46.6364 34.26C46.6364 33.98 46.6297 33.78 46.6164 33.66C46.5897 32.8333 46.3897 32.2 46.0164 31.76C45.6431 31.3067 45.1364 31.08 44.4964 31.08C43.7631 31.08 43.1831 31.3067 42.7564 31.76C42.3297 32.2 42.1031 32.8333 42.0764 33.66L42.0564 34.26L42.0764 34.78C42.1031 35.62 42.3097 36.26 42.6964 36.7C43.0831 37.14 43.6297 37.36 44.3364 37.36C45.0431 37.36 45.5897 37.1467 45.9764 36.72C46.3764 36.28 46.5897 35.6333 46.6164 34.78ZM56.05 39.2C54.57 39.2 53.39 38.7733 52.51 37.92C51.6433 37.0533 51.1833 35.84 51.13 34.28L51.11 33.78L51.13 33.28C51.1967 31.76 51.6633 30.5667 52.53 29.7C53.41 28.8333 54.5833 28.4 56.05 28.4C57.6233 28.4 58.8367 28.88 59.69 29.84C60.5567 30.8 60.99 32.08 60.99 33.68V34.1C60.99 34.2333 60.9433 34.3467 60.85 34.44C60.7567 34.5333 60.6367 34.58 60.49 34.58H53.85V34.74C53.8767 35.4733 54.0767 36.0933 54.45 36.6C54.8367 37.0933 55.3633 37.34 56.03 37.34C56.8167 37.34 57.45 37.0333 57.93 36.42C58.05 36.2733 58.1433 36.18 58.21 36.14C58.29 36.1 58.4033 36.08 58.55 36.08H60.27C60.39 36.08 60.49 36.12 60.57 36.2C60.6633 36.2667 60.71 36.3533 60.71 36.46C60.71 36.78 60.5167 37.16 60.13 37.6C59.7567 38.0267 59.2167 38.4 58.51 38.72C57.8033 39.04 56.9833 39.2 56.05 39.2ZM58.27 32.9V32.84C58.27 32.0533 58.07 31.42 57.67 30.94C57.2833 30.46 56.7433 30.22 56.05 30.22C55.3567 30.22 54.8167 30.46 54.43 30.94C54.0433 31.42 53.85 32.0533 53.85 32.84V32.9H58.27ZM72.693 38.38C72.7596 38.4467 72.793 38.5333 72.793 38.64C72.793 38.7467 72.753 38.8333 72.673 38.9C72.593 38.9667 72.493 39 72.373 39H70.353C70.1396 39 69.953 38.9 69.793 38.7L67.193 34.78H65.713V38.52C65.713 38.6533 65.6663 38.7667 65.573 38.86C65.4796 38.9533 65.3663 39 65.233 39H63.593C63.4596 39 63.3463 38.9533 63.253 38.86C63.1596 38.7667 63.113 38.6533 63.113 38.52V29.08C63.113 28.9467 63.1596 28.8333 63.253 28.74C63.3463 28.6467 63.4596 28.6 63.593 28.6H65.233C65.3663 28.6 65.4796 28.6467 65.573 28.74C65.6663 28.8333 65.713 28.9467 65.713 29.08V32.66H67.193L69.593 28.92C69.673 28.8133 69.753 28.7333 69.833 28.68C69.913 28.6267 70.0196 28.6 70.153 28.6H71.933C72.0663 28.6 72.173 28.6333 72.253 28.7C72.333 28.7667 72.373 28.8533 72.373 28.96C72.373 29.04 72.3396 29.1267 72.273 29.22L69.413 33.62L72.693 38.38ZM84.0188 28.6C84.1388 28.6 84.2454 28.6467 84.3388 28.74C84.4321 28.82 84.4788 28.92 84.4788 29.04V38.52C84.4788 38.6533 84.4321 38.7667 84.3388 38.86C84.2454 38.9533 84.1321 39 83.9988 39H82.3388C82.2054 39 82.0921 38.9533 81.9988 38.86C81.9054 38.7667 81.8588 38.6533 81.8588 38.52V32.1L77.0588 38.68C76.9388 38.8933 76.7588 39 76.5188 39H74.9988C74.8788 39 74.7721 38.96 74.6788 38.88C74.5854 38.7867 74.5387 38.6733 74.5387 38.54V29.08C74.5387 28.9467 74.5854 28.8333 74.6788 28.74C74.7721 28.6467 74.8854 28.6 75.0188 28.6H76.6788C76.8254 28.6 76.9388 28.6467 77.0188 28.74C77.1121 28.82 77.1588 28.9333 77.1588 29.08V35.52L81.9588 28.92C82.1054 28.7067 82.2854 28.6 82.4988 28.6H84.0188ZM91.4997 39.2C90.033 39.2 88.8597 38.7933 87.9797 37.98C87.113 37.1667 86.653 36.04 86.5997 34.6L86.5797 33.8L86.5997 33C86.653 31.56 87.113 30.4333 87.9797 29.62C88.8597 28.8067 90.033 28.4 91.4997 28.4C92.5397 28.4 93.4197 28.5867 94.1397 28.96C94.873 29.3333 95.413 29.7933 95.7597 30.34C96.1197 30.8733 96.313 31.38 96.3397 31.86C96.353 31.9933 96.3064 32.1067 96.1997 32.2C96.1064 32.2933 95.993 32.34 95.8597 32.34H94.0997C93.9664 32.34 93.8597 32.3133 93.7797 32.26C93.713 32.1933 93.6464 32.0867 93.5797 31.94C93.3797 31.42 93.113 31.0467 92.7797 30.82C92.4597 30.5933 92.0464 30.48 91.5397 30.48C90.8597 30.48 90.3264 30.7 89.9397 31.14C89.553 31.5667 89.3464 32.22 89.3197 33.1L89.2997 33.84L89.3197 34.5C89.373 36.2467 90.113 37.12 91.5397 37.12C92.0597 37.12 92.4797 37.0067 92.7997 36.78C93.1197 36.5533 93.3797 36.18 93.5797 35.66C93.6464 35.5133 93.713 35.4133 93.7797 35.36C93.8597 35.2933 93.9664 35.26 94.0997 35.26H95.8597C95.993 35.26 96.1064 35.3067 96.1997 35.4C96.3064 35.4933 96.353 35.6067 96.3397 35.74C96.313 36.2067 96.1264 36.7067 95.7797 37.24C95.433 37.7733 94.8997 38.2333 94.1797 38.62C93.4597 39.0067 92.5664 39.2 91.4997 39.2ZM101.605 39C101.472 39 101.359 38.9533 101.265 38.86C101.172 38.7667 101.125 38.6533 101.125 38.52V30.72H97.8655C97.7321 30.72 97.6188 30.6733 97.5255 30.58C97.4321 30.4867 97.3855 30.3667 97.3855 30.22V29.08C97.3855 28.9333 97.4321 28.82 97.5255 28.74C97.6188 28.6467 97.7321 28.6 97.8655 28.6H106.945C107.092 28.6 107.212 28.6467 107.305 28.74C107.399 28.8333 107.445 28.9467 107.445 29.08V30.22C107.445 30.3533 107.399 30.4733 107.305 30.58C107.212 30.6733 107.092 30.72 106.945 30.72H103.705V38.52C103.705 38.6533 103.659 38.7667 103.565 38.86C103.485 38.9533 103.372 39 103.225 39H101.605ZM112.051 39.2C111.371 39.2 110.744 39.0667 110.171 38.8C109.611 38.52 109.164 38.1467 108.831 37.68C108.511 37.2133 108.351 36.7 108.351 36.14C108.351 35.2333 108.718 34.5 109.451 33.94C110.184 33.38 111.191 33 112.471 32.8L115.211 32.4V31.98C115.211 31.3933 115.064 30.9533 114.771 30.66C114.478 30.3667 114.004 30.22 113.351 30.22C112.911 30.22 112.551 30.3067 112.271 30.48C112.004 30.64 111.791 30.8 111.631 30.96C111.471 31.1333 111.364 31.2467 111.311 31.3C111.258 31.46 111.158 31.54 111.011 31.54H109.471C109.351 31.54 109.244 31.5 109.151 31.42C109.071 31.34 109.031 31.2333 109.031 31.1C109.044 30.7667 109.204 30.3867 109.511 29.96C109.831 29.5333 110.318 29.1667 110.971 28.86C111.624 28.5533 112.424 28.4 113.371 28.4C114.944 28.4 116.091 28.7533 116.811 29.46C117.531 30.1667 117.891 31.0933 117.891 32.24V38.52C117.891 38.6533 117.844 38.7667 117.751 38.86C117.671 38.9533 117.558 39 117.411 39H115.791C115.658 39 115.544 38.9533 115.451 38.86C115.358 38.7667 115.311 38.6533 115.311 38.52V37.74C115.018 38.1667 114.598 38.52 114.051 38.8C113.518 39.0667 112.851 39.2 112.051 39.2ZM112.731 37.3C113.464 37.3 114.064 37.06 114.531 36.58C114.998 36.1 115.231 35.4 115.231 34.48V34.06L113.231 34.38C112.458 34.5 111.871 34.6933 111.471 34.96C111.084 35.2267 110.891 35.5533 110.891 35.94C110.891 36.3667 111.071 36.7 111.431 36.94C111.791 37.18 112.224 37.3 112.731 37.3ZM120.937 39C120.803 39 120.69 38.9533 120.597 38.86C120.503 38.7667 120.457 38.6533 120.457 38.52V29.08C120.457 28.9467 120.503 28.8333 120.597 28.74C120.69 28.6467 120.803 28.6 120.937 28.6H122.597C122.743 28.6 122.857 28.6467 122.937 28.74C123.03 28.82 123.077 28.9333 123.077 29.08V32.66H127.597V29.08C127.597 28.9333 127.643 28.82 127.737 28.74C127.83 28.6467 127.943 28.6 128.077 28.6H129.737C129.883 28.6 129.997 28.6467 130.077 28.74C130.17 28.82 130.217 28.9333 130.217 29.08V38.52C130.217 38.6533 130.17 38.7667 130.077 38.86C129.997 38.9533 129.883 39 129.737 39H128.077C127.943 39 127.83 38.9533 127.737 38.86C127.643 38.7667 127.597 38.6533 127.597 38.52V34.76H123.077V38.52C123.077 38.6533 123.03 38.7667 122.937 38.86C122.857 38.9533 122.743 39 122.597 39H120.937ZM137.398 39.2C135.918 39.2 134.738 38.7733 133.858 37.92C132.991 37.0533 132.531 35.84 132.478 34.28L132.458 33.78L132.478 33.28C132.544 31.76 133.011 30.5667 133.878 29.7C134.758 28.8333 135.931 28.4 137.398 28.4C138.971 28.4 140.184 28.88 141.038 29.84C141.904 30.8 142.338 32.08 142.338 33.68V34.1C142.338 34.2333 142.291 34.3467 142.198 34.44C142.104 34.5333 141.984 34.58 141.838 34.58H135.198V34.74C135.224 35.4733 135.424 36.0933 135.798 36.6C136.184 37.0933 136.711 37.34 137.378 37.34C138.164 37.34 138.798 37.0333 139.278 36.42C139.398 36.2733 139.491 36.18 139.558 36.14C139.638 36.1 139.751 36.08 139.898 36.08H141.618C141.738 36.08 141.838 36.12 141.918 36.2C142.011 36.2667 142.058 36.3533 142.058 36.46C142.058 36.78 141.864 37.16 141.478 37.6C141.104 38.0267 140.564 38.4 139.858 38.72C139.151 39.04 138.331 39.2 137.398 39.2ZM139.618 32.9V32.84C139.618 32.0533 139.418 31.42 139.018 30.94C138.631 30.46 138.091 30.22 137.398 30.22C136.704 30.22 136.164 30.46 135.778 30.94C135.391 31.42 135.198 32.0533 135.198 32.84V32.9H139.618Z" fill="black"/>
</svg>
