<svg width="135" height="44" viewBox="0 0 135 44" fill="none" xmlns="http://www.w3.org/2000/svg">
<path d="M0.98 13C0.86 13 0.758 12.964 0.674 12.892C0.602 12.808 0.566 12.7 0.566 12.568V0.831999C0.566 0.699999 0.602 0.597999 0.674 0.526C0.758 0.441999 0.86 0.399999 0.98 0.399999H1.916C2.036 0.399999 2.132 0.441999 2.204 0.526C2.288 0.609999 2.33 0.711999 2.33 0.831999V10.138L9.044 0.651999C9.14 0.483999 9.29 0.399999 9.494 0.399999H10.376C10.496 0.399999 10.592 0.441999 10.664 0.526C10.748 0.597999 10.79 0.699999 10.79 0.831999V12.586C10.79 12.706 10.748 12.808 10.664 12.892C10.592 12.964 10.496 13 10.376 13H9.458C9.338 13 9.236 12.964 9.152 12.892C9.068 12.808 9.026 12.706 9.026 12.586V3.352L2.33 12.748C2.234 12.916 2.084 13 1.88 13H0.98ZM14.1054 13C13.9854 13 13.8834 12.964 13.7994 12.892C13.7274 12.808 13.6914 12.706 13.6914 12.586V4.054C13.6914 3.934 13.7274 3.838 13.7994 3.766C13.8834 3.682 13.9854 3.64 14.1054 3.64H14.9694C15.0894 3.64 15.1854 3.682 15.2574 3.766C15.3414 3.838 15.3834 3.934 15.3834 4.054V7.51H20.2794V4.054C20.2794 3.934 20.3154 3.838 20.3874 3.766C20.4714 3.682 20.5734 3.64 20.6934 3.64H21.5394C21.6594 3.64 21.7554 3.682 21.8274 3.766C21.9114 3.838 21.9534 3.934 21.9534 4.054V12.586C21.9534 12.706 21.9114 12.808 21.8274 12.892C21.7554 12.964 21.6594 13 21.5394 13H20.6934C20.5734 13 20.4714 12.964 20.3874 12.892C20.3154 12.808 20.2794 12.706 20.2794 12.586V8.95H15.3834V12.586C15.3834 12.706 15.3414 12.808 15.2574 12.892C15.1854 12.964 15.0894 13 14.9694 13H14.1054ZM29.3581 16.42C29.2381 16.42 29.1361 16.378 29.0521 16.294C28.9801 16.222 28.9441 16.126 28.9441 16.006V13C27.4321 13 26.2921 12.64 25.5241 11.92C24.7561 11.188 24.3361 10.198 24.2641 8.95L24.2461 8.32L24.2641 7.69C24.3361 6.454 24.7561 5.47 25.5241 4.738C26.3041 4.006 27.4441 3.64 28.9441 3.64V0.633999C28.9441 0.513999 28.9801 0.418 29.0521 0.346C29.1361 0.261999 29.2381 0.219999 29.3581 0.219999H30.2041C30.3241 0.219999 30.4201 0.261999 30.4921 0.346C30.5761 0.418 30.6181 0.513999 30.6181 0.633999V3.64C32.1181 3.64 33.2521 4.006 34.0201 4.738C34.8001 5.47 35.2261 6.454 35.2981 7.69C35.3101 7.822 35.3161 8.032 35.3161 8.32C35.3161 8.608 35.3101 8.818 35.2981 8.95C35.2261 10.198 34.8061 11.188 34.0381 11.92C33.2821 12.64 32.1421 13 30.6181 13V16.006C30.6181 16.126 30.5761 16.222 30.4921 16.294C30.4201 16.378 30.3241 16.42 30.2041 16.42H29.3581ZM28.9441 5.026C27.0361 5.026 26.0341 5.956 25.9381 7.816L25.9201 8.32C25.9201 9.436 26.1601 10.264 26.6401 10.804C27.1321 11.344 27.9001 11.614 28.9441 11.614V5.026ZM30.6181 11.614C32.5261 11.614 33.5281 10.684 33.6241 8.824C33.6361 8.704 33.6421 8.536 33.6421 8.32C33.6421 8.092 33.6361 7.924 33.6241 7.816C33.5281 5.956 32.5261 5.026 30.6181 5.026V11.614ZM45.5185 3.64C45.6145 3.64 45.6985 3.676 45.7705 3.748C45.8545 3.82 45.8965 3.904 45.8965 4V12.586C45.8965 12.706 45.8545 12.808 45.7705 12.892C45.6985 12.964 45.6025 13 45.4825 13H44.6365C44.5165 13 44.4145 12.964 44.3305 12.892C44.2585 12.808 44.2225 12.706 44.2225 12.586V6.052L39.2365 12.73C39.1045 12.91 38.9485 13 38.7685 13H37.9585C37.8505 13 37.7545 12.964 37.6705 12.892C37.5985 12.808 37.5625 12.718 37.5625 12.622V4.054C37.5625 3.934 37.5985 3.838 37.6705 3.766C37.7545 3.682 37.8565 3.64 37.9765 3.64H38.8405C38.9605 3.64 39.0565 3.682 39.1285 3.766C39.2125 3.838 39.2545 3.934 39.2545 4.054V10.552L44.2225 3.91C44.3545 3.73 44.5105 3.64 44.6905 3.64H45.5185ZM56.5052 15.268C56.3852 15.268 56.2832 15.232 56.1992 15.16C56.1272 15.088 56.0912 14.986 56.0912 14.854V13H48.9452C48.8252 13 48.7232 12.964 48.6392 12.892C48.5672 12.808 48.5312 12.706 48.5312 12.586V4.054C48.5312 3.934 48.5672 3.838 48.6392 3.766C48.7232 3.682 48.8252 3.64 48.9452 3.64H49.8092C49.9292 3.64 50.0252 3.682 50.0972 3.766C50.1812 3.838 50.2232 3.934 50.2232 4.054V11.56H54.8312V4.054C54.8312 3.934 54.8672 3.838 54.9392 3.766C55.0112 3.682 55.1072 3.64 55.2272 3.64H56.0912C56.2112 3.64 56.3072 3.682 56.3792 3.766C56.4632 3.838 56.5052 3.934 56.5052 4.054L56.4872 11.56H57.3512C57.4712 11.56 57.5672 11.602 57.6392 11.686C57.7232 11.758 57.7652 11.854 57.7652 11.974V14.854C57.7652 14.974 57.7232 15.07 57.6392 15.142C57.5672 15.226 57.4712 15.268 57.3512 15.268H56.5052ZM67.6142 3.64C67.7102 3.64 67.7942 3.676 67.8662 3.748C67.9502 3.82 67.9922 3.904 67.9922 4V12.586C67.9922 12.706 67.9502 12.808 67.8662 12.892C67.7942 12.964 67.6982 13 67.5782 13H66.7322C66.6122 13 66.5102 12.964 66.4262 12.892C66.3542 12.808 66.3182 12.706 66.3182 12.586V6.052L61.3322 12.73C61.2002 12.91 61.0442 13 60.8642 13H60.0542C59.9462 13 59.8502 12.964 59.7662 12.892C59.6942 12.808 59.6582 12.718 59.6582 12.622V4.054C59.6582 3.934 59.6942 3.838 59.7662 3.766C59.8502 3.682 59.9522 3.64 60.0722 3.64H60.9362C61.0562 3.64 61.1522 3.682 61.2242 3.766C61.3082 3.838 61.3502 3.934 61.3502 4.054V10.552L66.3182 3.91C66.4502 3.73 66.6062 3.64 66.7862 3.64H67.6142ZM71.0589 16.42C70.9389 16.42 70.8369 16.378 70.7529 16.294C70.6809 16.222 70.6449 16.126 70.6449 16.006V4.054C70.6449 3.934 70.6809 3.838 70.7529 3.766C70.8369 3.682 70.9389 3.64 71.0589 3.64H71.8869C72.0069 3.64 72.1029 3.682 72.1749 3.766C72.2589 3.838 72.3009 3.934 72.3009 4.054V4.846C72.9729 3.922 73.9569 3.46 75.2529 3.46C76.5129 3.46 77.4549 3.856 78.0789 4.648C78.7149 5.44 79.0569 6.46 79.1049 7.708C79.1169 7.84 79.1229 8.044 79.1229 8.32C79.1229 8.596 79.1169 8.8 79.1049 8.932C79.0569 10.168 78.7149 11.188 78.0789 11.992C77.4429 12.784 76.5009 13.18 75.2529 13.18C74.0049 13.18 73.0329 12.73 72.3369 11.83V16.006C72.3369 16.126 72.3009 16.222 72.2289 16.294C72.1569 16.378 72.0609 16.42 71.9409 16.42H71.0589ZM74.8749 11.722C75.7269 11.722 76.3449 11.458 76.7289 10.93C77.1249 10.402 77.3409 9.706 77.3769 8.842C77.3889 8.722 77.3949 8.548 77.3949 8.32C77.3949 6.052 76.5549 4.918 74.8749 4.918C74.0469 4.918 73.4229 5.194 73.0029 5.746C72.5949 6.286 72.3729 6.934 72.3369 7.69L72.3189 8.374L72.3369 9.076C72.3609 9.784 72.5889 10.402 73.0209 10.93C73.4529 11.458 74.0709 11.722 74.8749 11.722ZM85.1836 13.18C83.8636 13.18 82.8376 12.808 82.1056 12.064C81.3856 11.32 81.0016 10.33 80.9536 9.094L80.9356 8.32L80.9536 7.546C81.0016 6.322 81.3916 5.338 82.1236 4.594C82.8556 3.838 83.8756 3.46 85.1836 3.46C86.4916 3.46 87.5116 3.838 88.2436 4.594C88.9756 5.338 89.3656 6.322 89.4136 7.546C89.4256 7.678 89.4316 7.936 89.4316 8.32C89.4316 8.704 89.4256 8.962 89.4136 9.094C89.3656 10.33 88.9756 11.32 88.2436 12.064C87.5236 12.808 86.5036 13.18 85.1836 13.18ZM85.1836 11.794C85.9396 11.794 86.5336 11.554 86.9656 11.074C87.4096 10.594 87.6496 9.904 87.6856 9.004C87.6976 8.884 87.7036 8.656 87.7036 8.32C87.7036 7.984 87.6976 7.756 87.6856 7.636C87.6496 6.736 87.4096 6.046 86.9656 5.566C86.5336 5.086 85.9396 4.846 85.1836 4.846C84.4276 4.846 83.8276 5.086 83.3836 5.566C82.9396 6.046 82.7056 6.736 82.6816 7.636L82.6636 8.32L82.6816 9.004C82.7056 9.904 82.9396 10.594 83.3836 11.074C83.8276 11.554 84.4276 11.794 85.1836 11.794ZM92.0995 13C91.9795 13 91.8775 12.964 91.7935 12.892C91.7215 12.808 91.6855 12.706 91.6855 12.586V4.054C91.6855 3.934 91.7215 3.838 91.7935 3.766C91.8775 3.682 91.9795 3.64 92.0995 3.64H95.8435C96.9475 3.64 97.7875 3.868 98.3635 4.324C98.9515 4.768 99.2455 5.38 99.2455 6.16C99.2455 6.676 99.1495 7.078 98.9575 7.366C98.7655 7.642 98.4715 7.882 98.0755 8.086C98.5075 8.266 98.8435 8.566 99.0835 8.986C99.3355 9.406 99.4615 9.856 99.4615 10.336C99.4615 11.2 99.1555 11.86 98.5435 12.316C97.9435 12.772 97.0915 13 95.9875 13H92.0995ZM95.7355 7.618C96.3235 7.618 96.7855 7.492 97.1215 7.24C97.4575 6.988 97.6255 6.634 97.6255 6.178C97.6255 5.734 97.4635 5.422 97.1395 5.242C96.8155 5.05 96.3475 4.954 95.7355 4.954H93.3415V7.618H95.7355ZM95.8435 11.686C96.4435 11.686 96.9115 11.572 97.2475 11.344C97.5955 11.116 97.7695 10.78 97.7695 10.336C97.7695 9.856 97.6135 9.508 97.3015 9.292C96.9895 9.064 96.5035 8.95 95.8435 8.95H93.3415V11.686H95.8435ZM104.385 13.18C103.797 13.18 103.251 13.06 102.747 12.82C102.243 12.58 101.841 12.256 101.541 11.848C101.253 11.428 101.109 10.966 101.109 10.462C101.109 9.67 101.433 9.022 102.081 8.518C102.741 8.002 103.629 7.666 104.745 7.51L107.427 7.132V6.61C107.427 5.386 106.725 4.774 105.321 4.774C104.793 4.774 104.361 4.888 104.025 5.116C103.689 5.332 103.437 5.59 103.269 5.89C103.233 5.998 103.185 6.076 103.125 6.124C103.077 6.172 103.005 6.196 102.909 6.196H102.135C102.027 6.196 101.931 6.16 101.847 6.088C101.775 6.004 101.739 5.908 101.739 5.8C101.751 5.512 101.883 5.188 102.135 4.828C102.399 4.456 102.801 4.138 103.341 3.874C103.881 3.598 104.547 3.46 105.339 3.46C106.683 3.46 107.649 3.778 108.237 4.414C108.825 5.038 109.119 5.818 109.119 6.754V12.586C109.119 12.706 109.077 12.808 108.993 12.892C108.921 12.964 108.825 13 108.705 13H107.877C107.757 13 107.655 12.964 107.571 12.892C107.499 12.808 107.463 12.706 107.463 12.586V11.812C107.199 12.196 106.815 12.52 106.311 12.784C105.807 13.048 105.165 13.18 104.385 13.18ZM104.763 11.83C105.543 11.83 106.179 11.578 106.671 11.074C107.175 10.558 107.427 9.82 107.427 8.86V8.356L105.339 8.662C104.487 8.782 103.845 8.986 103.413 9.274C102.981 9.55 102.765 9.904 102.765 10.336C102.765 10.816 102.963 11.188 103.359 11.452C103.755 11.704 104.223 11.83 104.763 11.83ZM112.121 13C112.001 13 111.899 12.964 111.815 12.892C111.743 12.808 111.707 12.706 111.707 12.586V4.054C111.707 3.934 111.743 3.838 111.815 3.766C111.899 3.682 112.001 3.64 112.121 3.64H112.985C113.105 3.64 113.201 3.682 113.273 3.766C113.357 3.838 113.399 3.934 113.399 4.054V7.51H118.295V4.054C118.295 3.934 118.331 3.838 118.403 3.766C118.487 3.682 118.589 3.64 118.709 3.64H119.555C119.675 3.64 119.771 3.682 119.843 3.766C119.927 3.838 119.969 3.934 119.969 4.054V12.586C119.969 12.706 119.927 12.808 119.843 12.892C119.771 12.964 119.675 13 119.555 13H118.709C118.589 13 118.487 12.964 118.403 12.892C118.331 12.808 118.295 12.706 118.295 12.586V8.95H113.399V12.586C113.399 12.706 113.357 12.808 113.273 12.892C113.201 12.964 113.105 13 112.985 13H112.121ZM123.09 13C122.97 13 122.868 12.964 122.784 12.892C122.712 12.808 122.676 12.706 122.676 12.586V4.054C122.676 3.934 122.712 3.838 122.784 3.766C122.868 3.682 122.97 3.64 123.09 3.64H123.954C124.074 3.64 124.17 3.682 124.242 3.766C124.326 3.838 124.368 3.934 124.368 4.054V6.7H126.24C127.428 6.7 128.31 6.982 128.886 7.546C129.474 8.098 129.768 8.884 129.768 9.904C129.768 10.96 129.456 11.74 128.832 12.244C128.22 12.748 127.284 13 126.024 13H123.09ZM131.46 13C131.34 13 131.238 12.964 131.154 12.892C131.082 12.808 131.046 12.706 131.046 12.586V4.054C131.046 3.934 131.082 3.838 131.154 3.766C131.238 3.682 131.34 3.64 131.46 3.64H132.324C132.444 3.64 132.54 3.682 132.612 3.766C132.696 3.838 132.738 3.934 132.738 4.054V12.586C132.738 12.706 132.696 12.808 132.612 12.892C132.54 12.964 132.444 13 132.324 13H131.46ZM126.078 11.65C126.822 11.65 127.356 11.518 127.68 11.254C128.016 10.99 128.184 10.54 128.184 9.904C128.184 9.268 128.016 8.8 127.68 8.5C127.356 8.2 126.822 8.05 126.078 8.05H124.35V11.65H126.078Z" fill="#DB0000"/>
<path d="M0.725 43C0.558333 43 0.416667 42.9417 0.3 42.825C0.183333 42.7083 0.125 42.5667 0.125 42.4V41.125C0.125 40.675 0.333333 40.2833 0.75 39.95L4.7 36.025C6.41667 34.675 7.60833 33.625 8.275 32.875C8.95833 32.1083 9.3 31.3583 9.3 30.625C9.3 29.8417 9.08333 29.225 8.65 28.775C8.23333 28.325 7.6 28.1 6.75 28.1C5.91667 28.1 5.25833 28.35 4.775 28.85C4.29167 29.3333 3.99167 29.9667 3.875 30.75C3.825 30.95 3.73333 31.1 3.6 31.2C3.46667 31.2833 3.31667 31.325 3.15 31.325H0.925C0.775 31.325 0.65 31.275 0.55 31.175C0.45 31.075 0.4 30.9583 0.4 30.825C0.433333 29.8417 0.7 28.925 1.2 28.075C1.7 27.2083 2.425 26.5167 3.375 26C4.325 25.4667 5.44167 25.2 6.725 25.2C8.05833 25.2 9.18333 25.4333 10.1 25.9C11.0333 26.35 11.7333 26.975 12.2 27.775C12.6667 28.575 12.9 29.4833 12.9 30.5C12.9 31.6167 12.5833 32.625 11.95 33.525C11.3333 34.425 10.3833 35.3917 9.1 36.425L5.55 40.025H12.675C12.8583 40.025 13 40.0833 13.1 40.2C13.2167 40.3 13.275 40.4417 13.275 40.625V42.4C13.275 42.5667 13.2167 42.7083 13.1 42.825C13 42.9417 12.8583 43 12.675 43H0.725ZM18.1035 43C17.9535 43 17.8285 42.95 17.7285 42.85C17.6285 42.7333 17.5785 42.6 17.5785 42.45C17.5785 42.4 17.5952 42.325 17.6285 42.225L23.6535 28.475H15.8035C15.6368 28.475 15.4952 28.4167 15.3785 28.3C15.2618 28.1833 15.2035 28.0417 15.2035 27.875V26.125C15.2035 25.9417 15.2535 25.7917 15.3535 25.675C15.4702 25.5583 15.6202 25.5 15.8035 25.5H26.7785C26.9618 25.5 27.1035 25.5583 27.2035 25.675C27.3202 25.7917 27.3785 25.9417 27.3785 26.125V27.675C27.3785 28.0083 27.3035 28.3667 27.1535 28.75L21.1785 42.4C20.9952 42.8 20.7285 43 20.3785 43H18.1035ZM35.7027 43.275C34.3194 43.275 33.1277 43.0417 32.1277 42.575C31.1444 42.1083 30.3861 41.4917 29.8527 40.725C29.3361 39.9583 29.0611 39.1333 29.0277 38.25V38.2C29.0277 38.0667 29.0777 37.9583 29.1777 37.875C29.2777 37.7917 29.4027 37.75 29.5527 37.75H31.8777C32.2611 37.75 32.5111 37.9167 32.6277 38.25C32.8611 38.9833 33.2444 39.525 33.7777 39.875C34.3277 40.225 34.9694 40.4 35.7027 40.4C36.6361 40.4 37.4111 40.1167 38.0277 39.55C38.6611 38.9833 38.9777 38.1917 38.9777 37.175C38.9777 36.275 38.6611 35.5417 38.0277 34.975C37.4111 34.4083 36.6361 34.125 35.7027 34.125C35.2027 34.125 34.7944 34.1917 34.4777 34.325C34.1611 34.4583 33.8527 34.6417 33.5527 34.875C33.3527 35.025 33.1944 35.1333 33.0777 35.2C32.9777 35.25 32.8527 35.275 32.7027 35.275H30.4027C30.2527 35.275 30.1194 35.225 30.0027 35.125C29.9027 35.0083 29.8527 34.875 29.8527 34.725L30.7277 26.175C30.7444 25.975 30.8111 25.8167 30.9277 25.7C31.0611 25.5667 31.2277 25.5 31.4277 25.5H40.8277C40.9944 25.5 41.1361 25.5583 41.2527 25.675C41.3694 25.7917 41.4277 25.9333 41.4277 26.1V27.775C41.4277 27.9417 41.3694 28.0833 41.2527 28.2C41.1361 28.3167 40.9944 28.375 40.8277 28.375H33.6027L33.2027 32.45C34.0194 31.8833 35.1111 31.6 36.4777 31.6C37.5611 31.6 38.5611 31.8333 39.4777 32.3C40.4111 32.75 41.1527 33.4083 41.7027 34.275C42.2527 35.125 42.5277 36.1167 42.5277 37.25C42.5277 38.4667 42.2444 39.5333 41.6777 40.45C41.1111 41.35 40.3111 42.05 39.2777 42.55C38.2611 43.0333 37.0694 43.275 35.7027 43.275ZM51.3307 43.25C49.864 43.25 48.614 43.0167 47.5807 42.55C46.564 42.0833 45.7973 41.5 45.2807 40.8C44.7807 40.0833 44.514 39.35 44.4807 38.6C44.4807 38.45 44.5307 38.3333 44.6307 38.25C44.7473 38.15 44.8807 38.1 45.0307 38.1H47.2807C47.6473 38.1 47.889 38.2667 48.0057 38.6C48.3723 39.8 49.489 40.4 51.3557 40.4C52.3723 40.4 53.1723 40.1667 53.7557 39.7C54.339 39.2167 54.6307 38.5333 54.6307 37.65C54.6307 35.9833 53.589 35.15 51.5057 35.15H48.9307C48.7473 35.15 48.5973 35.0917 48.4807 34.975C48.364 34.8583 48.3057 34.7167 48.3057 34.55V33.5C48.3057 33.2333 48.4223 32.9833 48.6557 32.75L53.1307 28.375H45.9807C45.814 28.375 45.6723 28.3167 45.5557 28.2C45.439 28.0833 45.3807 27.9417 45.3807 27.775V26.125C45.3807 25.9417 45.4307 25.7917 45.5307 25.675C45.6473 25.5583 45.7973 25.5 45.9807 25.5H56.7057C56.889 25.5 57.039 25.5583 57.1557 25.675C57.2723 25.7917 57.3307 25.9417 57.3307 26.125V27.625C57.3307 27.875 57.2223 28.1083 57.0057 28.325L52.6807 32.775L52.9807 32.8C54.5807 32.9333 55.8473 33.4167 56.7807 34.25C57.7307 35.0833 58.2057 36.275 58.2057 37.825C58.2057 38.925 57.9057 39.8833 57.3057 40.7C56.7223 41.5167 55.9057 42.15 54.8557 42.6C53.8223 43.0333 52.6473 43.25 51.3307 43.25Z" fill="black"/>
</svg>
