<svg width="117" height="44" viewBox="0 0 117 44" fill="none" xmlns="http://www.w3.org/2000/svg">
<path d="M0.98 13C0.86 13 0.758 12.964 0.674 12.892C0.602 12.808 0.566 12.706 0.566 12.586V0.831999C0.566 0.699999 0.602 0.597999 0.674 0.526C0.758 0.441999 0.86 0.399999 0.98 0.399999H5.912C7.196 0.399999 8.162 0.705999 8.81 1.318C9.458 1.93 9.782 2.734 9.782 3.73C9.782 4.402 9.626 4.96 9.314 5.404C9.014 5.848 8.654 6.172 8.234 6.376C8.738 6.628 9.164 7.018 9.512 7.546C9.86 8.074 10.034 8.68 10.034 9.364C10.034 10.036 9.878 10.648 9.566 11.2C9.266 11.752 8.816 12.19 8.216 12.514C7.616 12.838 6.896 13 6.056 13H0.98ZM5.642 5.728C6.398 5.728 6.974 5.554 7.37 5.206C7.778 4.858 7.982 4.372 7.982 3.748C7.982 3.136 7.784 2.668 7.388 2.344C6.992 2.02 6.41 1.858 5.642 1.858H2.33V5.728H5.642ZM5.822 11.542C6.578 11.542 7.166 11.338 7.586 10.93C8.018 10.522 8.234 10 8.234 9.364C8.234 8.704 8.018 8.176 7.586 7.78C7.166 7.372 6.578 7.168 5.822 7.168H2.33V11.542H5.822ZM12.7694 13C12.6494 13 12.5474 12.964 12.4634 12.892C12.3914 12.808 12.3554 12.706 12.3554 12.586V4.054C12.3554 3.934 12.3914 3.838 12.4634 3.766C12.5474 3.682 12.6494 3.64 12.7694 3.64H13.6334C13.7534 3.64 13.8494 3.682 13.9214 3.766C14.0054 3.838 14.0474 3.934 14.0474 4.054V6.7H15.9194C17.1074 6.7 17.9894 6.982 18.5654 7.546C19.1534 8.098 19.4474 8.884 19.4474 9.904C19.4474 10.96 19.1354 11.74 18.5114 12.244C17.8994 12.748 16.9634 13 15.7034 13H12.7694ZM21.1394 13C21.0194 13 20.9174 12.964 20.8334 12.892C20.7614 12.808 20.7254 12.706 20.7254 12.586V4.054C20.7254 3.934 20.7614 3.838 20.8334 3.766C20.9174 3.682 21.0194 3.64 21.1394 3.64H22.0034C22.1234 3.64 22.2194 3.682 22.2914 3.766C22.3754 3.838 22.4174 3.934 22.4174 4.054V12.586C22.4174 12.706 22.3754 12.808 22.2914 12.892C22.2194 12.964 22.1234 13 22.0034 13H21.1394ZM15.7574 11.65C16.5014 11.65 17.0354 11.518 17.3594 11.254C17.6954 10.99 17.8634 10.54 17.8634 9.904C17.8634 9.268 17.6954 8.8 17.3594 8.5C17.0354 8.2 16.5014 8.05 15.7574 8.05H14.0294V11.65H15.7574ZM28.3576 13.18C27.4816 13.18 26.7556 13.042 26.1796 12.766C25.6156 12.49 25.2016 12.154 24.9376 11.758C24.6856 11.362 24.5536 10.972 24.5416 10.588V10.552C24.5416 10.456 24.5776 10.378 24.6496 10.318C24.7216 10.258 24.8056 10.228 24.9016 10.228H25.7476C25.9636 10.228 26.1076 10.342 26.1796 10.57C26.3116 11.026 26.5696 11.35 26.9536 11.542C27.3496 11.722 27.8656 11.812 28.5016 11.812C29.1136 11.812 29.6176 11.686 30.0136 11.434C30.4096 11.182 30.6076 10.81 30.6076 10.318C30.6076 9.814 30.4636 9.442 30.1756 9.202C29.8996 8.95 29.4676 8.824 28.8796 8.824H27.8896C27.7816 8.824 27.6916 8.788 27.6196 8.716C27.5476 8.644 27.5116 8.548 27.5116 8.428V7.942C27.5116 7.822 27.5476 7.726 27.6196 7.654C27.6916 7.582 27.7816 7.546 27.8896 7.546H28.7716C29.7916 7.546 30.3016 7.144 30.3016 6.34C30.3016 5.908 30.1456 5.548 29.8336 5.26C29.5336 4.972 29.0416 4.828 28.3576 4.828C27.6976 4.828 27.2176 4.942 26.9176 5.17C26.6296 5.386 26.4196 5.734 26.2876 6.214C26.2396 6.334 26.1796 6.424 26.1076 6.484C26.0476 6.532 25.9576 6.556 25.8376 6.556H25.0276C24.9196 6.556 24.8296 6.526 24.7576 6.466C24.6856 6.394 24.6496 6.31 24.6496 6.214C24.6616 5.722 24.8056 5.266 25.0816 4.846C25.3576 4.426 25.7716 4.09 26.3236 3.838C26.8756 3.586 27.5536 3.46 28.3576 3.46C29.1976 3.46 29.8876 3.592 30.4276 3.856C30.9676 4.12 31.3576 4.45 31.5976 4.846C31.8376 5.242 31.9576 5.656 31.9576 6.088C31.9576 6.58 31.8736 6.982 31.7056 7.294C31.5496 7.594 31.2616 7.846 30.8416 8.05C31.3576 8.242 31.7236 8.542 31.9396 8.95C32.1676 9.358 32.2816 9.856 32.2816 10.444C32.2816 11.32 31.9216 11.998 31.2016 12.478C30.4816 12.946 29.5336 13.18 28.3576 13.18ZM33.7705 14.98C33.6505 14.98 33.5485 14.938 33.4645 14.854C33.3925 14.782 33.3565 14.686 33.3565 14.566V11.974C33.3565 11.854 33.3925 11.758 33.4645 11.686C33.5485 11.602 33.6505 11.56 33.7705 11.56H33.8605C34.3645 11.548 34.7425 11.128 34.9945 10.3C35.2585 9.472 35.3905 8.158 35.3905 6.358V4.054C35.3905 3.934 35.4265 3.838 35.4985 3.766C35.5825 3.682 35.6845 3.64 35.8045 3.64H41.5465C41.6665 3.64 41.7625 3.682 41.8345 3.766C41.9185 3.838 41.9605 3.934 41.9605 4.054V11.524H42.8065C42.9265 11.524 43.0225 11.566 43.0945 11.65C43.1785 11.722 43.2205 11.818 43.2205 11.938V14.566C43.2205 14.686 43.1785 14.782 43.0945 14.854C43.0225 14.938 42.9265 14.98 42.8065 14.98H41.9605C41.8405 14.98 41.7385 14.938 41.6545 14.854C41.5825 14.782 41.5465 14.686 41.5465 14.566V13H35.0305V14.566C35.0305 14.686 34.9885 14.782 34.9045 14.854C34.8325 14.938 34.7365 14.98 34.6165 14.98H33.7705ZM40.2865 11.524V5.08H37.0285V6.556C37.0285 8.956 36.6865 10.624 36.0025 11.56L40.2865 11.524ZM48.9375 13.18C47.6175 13.18 46.5915 12.808 45.8595 12.064C45.1395 11.32 44.7555 10.33 44.7075 9.094L44.6895 8.32L44.7075 7.546C44.7555 6.322 45.1455 5.338 45.8775 4.594C46.6095 3.838 47.6295 3.46 48.9375 3.46C50.2455 3.46 51.2655 3.838 51.9975 4.594C52.7295 5.338 53.1195 6.322 53.1675 7.546C53.1795 7.678 53.1855 7.936 53.1855 8.32C53.1855 8.704 53.1795 8.962 53.1675 9.094C53.1195 10.33 52.7295 11.32 51.9975 12.064C51.2775 12.808 50.2575 13.18 48.9375 13.18ZM48.9375 11.794C49.6935 11.794 50.2875 11.554 50.7195 11.074C51.1635 10.594 51.4035 9.904 51.4395 9.004C51.4515 8.884 51.4575 8.656 51.4575 8.32C51.4575 7.984 51.4515 7.756 51.4395 7.636C51.4035 6.736 51.1635 6.046 50.7195 5.566C50.2875 5.086 49.6935 4.846 48.9375 4.846C48.1815 4.846 47.5815 5.086 47.1375 5.566C46.6935 6.046 46.4595 6.736 46.4355 7.636L46.4175 8.32L46.4355 9.004C46.4595 9.904 46.6935 10.594 47.1375 11.074C47.5815 11.554 48.1815 11.794 48.9375 11.794ZM55.8714 16.42C55.7514 16.42 55.6494 16.378 55.5654 16.294C55.4934 16.222 55.4574 16.126 55.4574 16.006V4.054C55.4574 3.934 55.4934 3.838 55.5654 3.766C55.6494 3.682 55.7514 3.64 55.8714 3.64H56.6994C56.8194 3.64 56.9154 3.682 56.9874 3.766C57.0714 3.838 57.1134 3.934 57.1134 4.054V4.846C57.7854 3.922 58.7694 3.46 60.0654 3.46C61.3254 3.46 62.2674 3.856 62.8914 4.648C63.5274 5.44 63.8694 6.46 63.9174 7.708C63.9294 7.84 63.9354 8.044 63.9354 8.32C63.9354 8.596 63.9294 8.8 63.9174 8.932C63.8694 10.168 63.5274 11.188 62.8914 11.992C62.2554 12.784 61.3134 13.18 60.0654 13.18C58.8174 13.18 57.8454 12.73 57.1494 11.83V16.006C57.1494 16.126 57.1134 16.222 57.0414 16.294C56.9694 16.378 56.8734 16.42 56.7534 16.42H55.8714ZM59.6874 11.722C60.5394 11.722 61.1574 11.458 61.5414 10.93C61.9374 10.402 62.1534 9.706 62.1894 8.842C62.2014 8.722 62.2074 8.548 62.2074 8.32C62.2074 6.052 61.3674 4.918 59.6874 4.918C58.8594 4.918 58.2354 5.194 57.8154 5.746C57.4074 6.286 57.1854 6.934 57.1494 7.69L57.1314 8.374L57.1494 9.076C57.1734 9.784 57.4014 10.402 57.8334 10.93C58.2654 11.458 58.8834 11.722 59.6874 11.722ZM69.9961 13.18C68.6761 13.18 67.6501 12.808 66.9181 12.064C66.1981 11.32 65.8141 10.33 65.7661 9.094L65.7481 8.32L65.7661 7.546C65.8141 6.322 66.2041 5.338 66.9361 4.594C67.6681 3.838 68.6881 3.46 69.9961 3.46C71.3041 3.46 72.3241 3.838 73.0561 4.594C73.7881 5.338 74.1781 6.322 74.2261 7.546C74.2381 7.678 74.2441 7.936 74.2441 8.32C74.2441 8.704 74.2381 8.962 74.2261 9.094C74.1781 10.33 73.7881 11.32 73.0561 12.064C72.3361 12.808 71.3161 13.18 69.9961 13.18ZM69.9961 11.794C70.7521 11.794 71.3461 11.554 71.7781 11.074C72.2221 10.594 72.4621 9.904 72.4981 9.004C72.5101 8.884 72.5161 8.656 72.5161 8.32C72.5161 7.984 72.5101 7.756 72.4981 7.636C72.4621 6.736 72.2221 6.046 71.7781 5.566C71.3461 5.086 70.7521 4.846 69.9961 4.846C69.2401 4.846 68.6401 5.086 68.1961 5.566C67.7521 6.046 67.5181 6.736 67.4941 7.636L67.4761 8.32L67.4941 9.004C67.5181 9.904 67.7521 10.594 68.1961 11.074C68.6401 11.554 69.2401 11.794 69.9961 11.794ZM76.912 13C76.792 13 76.69 12.964 76.606 12.892C76.534 12.808 76.498 12.706 76.498 12.586V4.054C76.498 3.934 76.534 3.838 76.606 3.766C76.69 3.682 76.792 3.64 76.912 3.64H80.656C81.76 3.64 82.6 3.868 83.176 4.324C83.764 4.768 84.058 5.38 84.058 6.16C84.058 6.676 83.962 7.078 83.77 7.366C83.578 7.642 83.284 7.882 82.888 8.086C83.32 8.266 83.656 8.566 83.896 8.986C84.148 9.406 84.274 9.856 84.274 10.336C84.274 11.2 83.968 11.86 83.356 12.316C82.756 12.772 81.904 13 80.8 13H76.912ZM80.548 7.618C81.136 7.618 81.598 7.492 81.934 7.24C82.27 6.988 82.438 6.634 82.438 6.178C82.438 5.734 82.276 5.422 81.952 5.242C81.628 5.05 81.16 4.954 80.548 4.954H78.154V7.618H80.548ZM80.656 11.686C81.256 11.686 81.724 11.572 82.06 11.344C82.408 11.116 82.582 10.78 82.582 10.336C82.582 9.856 82.426 9.508 82.114 9.292C81.802 9.064 81.316 8.95 80.656 8.95H78.154V11.686H80.656ZM90.3319 13.18C89.0959 13.18 88.1059 12.802 87.3619 12.046C86.6299 11.278 86.2279 10.234 86.1559 8.914L86.1379 8.302L86.1559 7.708C86.2399 6.412 86.6479 5.38 87.3799 4.612C88.1239 3.844 89.1019 3.46 90.3139 3.46C91.6459 3.46 92.6779 3.886 93.4099 4.738C94.1419 5.578 94.5079 6.718 94.5079 8.158V8.464C94.5079 8.584 94.4659 8.686 94.3819 8.77C94.3099 8.842 94.2139 8.878 94.0939 8.878H87.8659V9.04C87.9019 9.82 88.1359 10.486 88.5679 11.038C89.0119 11.578 89.5939 11.848 90.3139 11.848C90.8659 11.848 91.3159 11.74 91.6639 11.524C92.0239 11.296 92.2879 11.062 92.4559 10.822C92.5639 10.678 92.6419 10.594 92.6899 10.57C92.7499 10.534 92.8519 10.516 92.9959 10.516H93.8779C93.9859 10.516 94.0759 10.546 94.1479 10.606C94.2199 10.666 94.2559 10.75 94.2559 10.858C94.2559 11.122 94.0879 11.44 93.7519 11.812C93.4279 12.184 92.9659 12.508 92.3659 12.784C91.7779 13.048 91.0999 13.18 90.3319 13.18ZM92.7979 7.636V7.582C92.7979 6.754 92.5699 6.082 92.1139 5.566C91.6699 5.038 91.0699 4.774 90.3139 4.774C89.5579 4.774 88.9579 5.038 88.5139 5.566C88.0819 6.082 87.8659 6.754 87.8659 7.582V7.636H92.7979ZM96.1398 13C96.0198 13 95.9178 12.958 95.8338 12.874C95.7498 12.79 95.7078 12.688 95.7078 12.568V11.902C95.7078 11.782 95.7438 11.686 95.8158 11.614C95.8878 11.542 95.9778 11.506 96.0858 11.506C96.6618 11.482 97.0878 11.074 97.3638 10.282C97.6518 9.478 97.7958 8.17 97.7958 6.358V4.054C97.7958 3.934 97.8318 3.838 97.9038 3.766C97.9878 3.682 98.0898 3.64 98.2098 3.64H103.934C104.054 3.64 104.15 3.682 104.222 3.766C104.306 3.838 104.348 3.934 104.348 4.054V12.586C104.348 12.706 104.306 12.808 104.222 12.892C104.15 12.964 104.054 13 103.934 13H103.07C102.95 13 102.854 12.964 102.782 12.892C102.71 12.808 102.674 12.706 102.674 12.586V5.08H99.4338V6.556C99.4338 8.848 99.1698 10.498 98.6418 11.506C98.1138 12.502 97.2798 13 96.1398 13ZM114.987 3.64C115.083 3.64 115.167 3.676 115.239 3.748C115.323 3.82 115.365 3.904 115.365 4V12.586C115.365 12.706 115.323 12.808 115.239 12.892C115.167 12.964 115.071 13 114.951 13H114.105C113.985 13 113.883 12.964 113.799 12.892C113.727 12.808 113.691 12.706 113.691 12.586V6.052L108.705 12.73C108.573 12.91 108.417 13 108.237 13H107.427C107.319 13 107.223 12.964 107.139 12.892C107.067 12.808 107.031 12.718 107.031 12.622V4.054C107.031 3.934 107.067 3.838 107.139 3.766C107.223 3.682 107.325 3.64 107.445 3.64H108.309C108.429 3.64 108.525 3.682 108.597 3.766C108.681 3.838 108.723 3.934 108.723 4.054V10.552L113.691 3.91C113.823 3.73 113.979 3.64 114.159 3.64H114.987Z" fill="#05B135"/>
<path d="M0.725 43C0.558333 43 0.416667 42.9417 0.3 42.825C0.183333 42.7083 0.125 42.5667 0.125 42.4V41.125C0.125 40.675 0.333333 40.2833 0.75 39.95L4.7 36.025C6.41667 34.675 7.60833 33.625 8.275 32.875C8.95833 32.1083 9.3 31.3583 9.3 30.625C9.3 29.8417 9.08333 29.225 8.65 28.775C8.23333 28.325 7.6 28.1 6.75 28.1C5.91667 28.1 5.25833 28.35 4.775 28.85C4.29167 29.3333 3.99167 29.9667 3.875 30.75C3.825 30.95 3.73333 31.1 3.6 31.2C3.46667 31.2833 3.31667 31.325 3.15 31.325H0.925C0.775 31.325 0.65 31.275 0.55 31.175C0.45 31.075 0.4 30.9583 0.4 30.825C0.433333 29.8417 0.7 28.925 1.2 28.075C1.7 27.2083 2.425 26.5167 3.375 26C4.325 25.4667 5.44167 25.2 6.725 25.2C8.05833 25.2 9.18333 25.4333 10.1 25.9C11.0333 26.35 11.7333 26.975 12.2 27.775C12.6667 28.575 12.9 29.4833 12.9 30.5C12.9 31.6167 12.5833 32.625 11.95 33.525C11.3333 34.425 10.3833 35.3917 9.1 36.425L5.55 40.025H12.675C12.8583 40.025 13 40.0833 13.1 40.2C13.2167 40.3 13.275 40.4417 13.275 40.625V42.4C13.275 42.5667 13.2167 42.7083 13.1 42.825C13 42.9417 12.8583 43 12.675 43H0.725ZM16.2035 43C16.0368 43 15.8952 42.9417 15.7785 42.825C15.6618 42.7083 15.6035 42.5667 15.6035 42.4V41.125C15.6035 40.675 15.8118 40.2833 16.2285 39.95L20.1785 36.025C21.8952 34.675 23.0868 33.625 23.7535 32.875C24.4368 32.1083 24.7785 31.3583 24.7785 30.625C24.7785 29.8417 24.5618 29.225 24.1285 28.775C23.7118 28.325 23.0785 28.1 22.2285 28.1C21.3952 28.1 20.7368 28.35 20.2535 28.85C19.7702 29.3333 19.4702 29.9667 19.3535 30.75C19.3035 30.95 19.2118 31.1 19.0785 31.2C18.9452 31.2833 18.7952 31.325 18.6285 31.325H16.4035C16.2535 31.325 16.1285 31.275 16.0285 31.175C15.9285 31.075 15.8785 30.9583 15.8785 30.825C15.9118 29.8417 16.1785 28.925 16.6785 28.075C17.1785 27.2083 17.9035 26.5167 18.8535 26C19.8035 25.4667 20.9202 25.2 22.2035 25.2C23.5368 25.2 24.6618 25.4333 25.5785 25.9C26.5118 26.35 27.2118 26.975 27.6785 27.775C28.1452 28.575 28.3785 29.4833 28.3785 30.5C28.3785 31.6167 28.0618 32.625 27.4285 33.525C26.8118 34.425 25.8618 35.3917 24.5785 36.425L21.0285 40.025H28.1535C28.3368 40.025 28.4785 40.0833 28.5785 40.2C28.6952 40.3 28.7535 40.4417 28.7535 40.625V42.4C28.7535 42.5667 28.6952 42.7083 28.5785 42.825C28.4785 42.9417 28.3368 43 28.1535 43H16.2035ZM39.6611 43C39.4945 43 39.3528 42.9417 39.2361 42.825C39.1195 42.7083 39.0611 42.5667 39.0611 42.4V39.2H31.1361C30.9695 39.2 30.8278 39.1417 30.7111 39.025C30.5945 38.9083 30.5361 38.7667 30.5361 38.6V36.9C30.5361 36.6333 30.6278 36.3833 30.8111 36.15L38.1861 25.925C38.2695 25.7917 38.3945 25.6917 38.5611 25.625C38.7278 25.5417 38.9111 25.5 39.1111 25.5H41.8361C42.0195 25.5 42.1611 25.5583 42.2611 25.675C42.3778 25.775 42.4361 25.9167 42.4361 26.1V36.25H44.6611C44.8445 36.25 44.9945 36.3083 45.1111 36.425C45.2278 36.525 45.2861 36.6667 45.2861 36.85V38.6C45.2861 38.7667 45.2278 38.9083 45.1111 39.025C44.9945 39.1417 44.8528 39.2 44.6861 39.2H42.4361V42.4C42.4361 42.5667 42.3778 42.7083 42.2611 42.825C42.1611 42.9417 42.0195 43 41.8361 43H39.6611ZM39.1361 36.35V29.125L34.0111 36.35H39.1361ZM53.7447 43.275C52.3614 43.275 51.1697 43.0417 50.1697 42.575C49.1864 42.1083 48.4281 41.4917 47.8947 40.725C47.3781 39.9583 47.1031 39.1333 47.0697 38.25V38.2C47.0697 38.0667 47.1197 37.9583 47.2197 37.875C47.3197 37.7917 47.4447 37.75 47.5947 37.75H49.9197C50.3031 37.75 50.5531 37.9167 50.6697 38.25C50.9031 38.9833 51.2864 39.525 51.8197 39.875C52.3697 40.225 53.0114 40.4 53.7447 40.4C54.6781 40.4 55.4531 40.1167 56.0697 39.55C56.7031 38.9833 57.0197 38.1917 57.0197 37.175C57.0197 36.275 56.7031 35.5417 56.0697 34.975C55.4531 34.4083 54.6781 34.125 53.7447 34.125C53.2447 34.125 52.8364 34.1917 52.5197 34.325C52.2031 34.4583 51.8947 34.6417 51.5947 34.875C51.3947 35.025 51.2364 35.1333 51.1197 35.2C51.0197 35.25 50.8947 35.275 50.7447 35.275H48.4447C48.2947 35.275 48.1614 35.225 48.0447 35.125C47.9447 35.0083 47.8947 34.875 47.8947 34.725L48.7697 26.175C48.7864 25.975 48.8531 25.8167 48.9697 25.7C49.1031 25.5667 49.2697 25.5 49.4697 25.5H58.8697C59.0364 25.5 59.1781 25.5583 59.2947 25.675C59.4114 25.7917 59.4697 25.9333 59.4697 26.1V27.775C59.4697 27.9417 59.4114 28.0833 59.2947 28.2C59.1781 28.3167 59.0364 28.375 58.8697 28.375H51.6447L51.2447 32.45C52.0614 31.8833 53.1531 31.6 54.5197 31.6C55.6031 31.6 56.6031 31.8333 57.5197 32.3C58.4531 32.75 59.1947 33.4083 59.7447 34.275C60.2947 35.125 60.5697 36.1167 60.5697 37.25C60.5697 38.4667 60.2864 39.5333 59.7197 40.45C59.1531 41.35 58.3531 42.05 57.3197 42.55C56.3031 43.0333 55.1114 43.275 53.7447 43.275Z" fill="black"/>
</svg>
